<svg width="14" height="14" viewBox="0 0 14 14" fill="none" xmlns="http://www.w3.org/2000/svg">
<rect width="14" height="14" fill="#111111" style="fill:#111111;fill:color(display-p3 0.0667 0.0667 0.0667);fill-opacity:1;"/>
<path d="M1.248 3.948H1.972V4.284C2.04933 4.16133 2.144 4.068 2.256 4.004C2.368 3.93733 2.49867 3.904 2.648 3.904C2.66667 3.904 2.68667 3.904 2.708 3.904C2.732 3.904 2.75867 3.90667 2.788 3.912V4.604C2.692 4.556 2.588 4.532 2.476 4.532C2.308 4.532 2.18133 4.58267 2.096 4.684C2.01333 4.78267 1.972 4.928 1.972 5.12V6H1.248V3.948ZM4.74338 4.98C4.74338 4.916 4.73138 4.856 4.70738 4.8C4.68338 4.74133 4.65004 4.69067 4.60738 4.648C4.56471 4.60533 4.51538 4.572 4.45938 4.548C4.40338 4.52133 4.34204 4.508 4.27538 4.508C4.21138 4.508 4.15138 4.52 4.09538 4.544C4.03938 4.568 3.99004 4.60133 3.94738 4.644C3.90738 4.68667 3.87404 4.73733 3.84738 4.796C3.82338 4.852 3.81138 4.912 3.81138 4.976C3.81138 5.04 3.82338 5.1 3.84738 5.156C3.87138 5.212 3.90471 5.26133 3.94738 5.304C3.99004 5.344 4.03938 5.37733 4.09538 5.404C4.15404 5.428 4.21538 5.44 4.27938 5.44C4.34338 5.44 4.40338 5.428 4.45938 5.404C4.51538 5.38 4.56338 5.34667 4.60338 5.304C4.64604 5.26133 4.67938 5.212 4.70338 5.156C4.73004 5.1 4.74338 5.04133 4.74338 4.98ZM3.83138 2.68V4.152C4.00204 3.97333 4.21538 3.884 4.47138 3.884C4.62338 3.884 4.76204 3.91333 4.88738 3.972C5.01538 4.028 5.12338 4.10533 5.21137 4.204C5.30204 4.3 5.37271 4.41467 5.42338 4.548C5.47404 4.67867 5.49938 4.81867 5.49938 4.968C5.49938 5.12 5.47271 5.26267 5.41938 5.396C5.36871 5.52933 5.29671 5.64533 5.20338 5.744C5.11004 5.84267 4.99938 5.92133 4.87138 5.98C4.74604 6.036 4.61004 6.064 4.46338 6.064C4.19671 6.064 3.98604 5.96667 3.83138 5.772V6H3.10738V2.68H3.83138ZM7.54806 4.98C7.54806 4.916 7.53606 4.856 7.51206 4.8C7.48806 4.74133 7.45473 4.69067 7.41206 4.648C7.3694 4.60533 7.32006 4.572 7.26406 4.548C7.20806 4.52133 7.14673 4.508 7.08006 4.508C7.01606 4.508 6.95606 4.52 6.90006 4.544C6.84406 4.568 6.79473 4.60133 6.75206 4.644C6.71206 4.68667 6.67873 4.73733 6.65206 4.796C6.62806 4.852 6.61606 4.912 6.61606 4.976C6.61606 5.04 6.62806 5.1 6.65206 5.156C6.67606 5.212 6.7094 5.26133 6.75206 5.304C6.79473 5.344 6.84406 5.37733 6.90006 5.404C6.95873 5.428 7.02006 5.44 7.08406 5.44C7.14806 5.44 7.20806 5.428 7.26406 5.404C7.32006 5.38 7.36806 5.34667 7.40806 5.304C7.45073 5.26133 7.48406 5.212 7.50806 5.156C7.53473 5.1 7.54806 5.04133 7.54806 4.98ZM6.63606 2.68V4.152C6.80673 3.97333 7.02006 3.884 7.27606 3.884C7.42806 3.884 7.56673 3.91333 7.69206 3.972C7.82006 4.028 7.92806 4.10533 8.01606 4.204C8.10673 4.3 8.1774 4.41467 8.22806 4.548C8.27873 4.67867 8.30406 4.81867 8.30406 4.968C8.30406 5.12 8.2774 5.26267 8.22406 5.396C8.1734 5.52933 8.1014 5.64533 8.00806 5.744C7.91473 5.84267 7.80406 5.92133 7.67606 5.98C7.55073 6.036 7.41473 6.064 7.26806 6.064C7.0014 6.064 6.79073 5.96667 6.63606 5.772V6H5.91206V2.68H6.63606ZM9.52475 4.552V6H8.80075V4.552H8.56075V3.948H8.80075V3.332H9.52475V3.948H9.93675V4.552H9.52475Z" fill="white" style="fill:white;fill-opacity:1;"/>
<path d="M3.248 8.948H3.972V9.284C4.04933 9.16133 4.144 9.068 4.256 9.004C4.368 8.93733 4.49867 8.904 4.648 8.904C4.66667 8.904 4.68667 8.904 4.708 8.904C4.732 8.904 4.75867 8.90667 4.788 8.912V9.604C4.692 9.556 4.588 9.532 4.476 9.532C4.308 9.532 4.18133 9.58267 4.096 9.684C4.01333 9.78267 3.972 9.928 3.972 10.12V11H3.248V8.948ZM6.74338 9.98C6.74338 9.916 6.73138 9.856 6.70738 9.8C6.68338 9.74133 6.65004 9.69067 6.60738 9.648C6.56471 9.60533 6.51538 9.572 6.45938 9.548C6.40338 9.52133 6.34204 9.508 6.27538 9.508C6.21138 9.508 6.15138 9.52 6.09538 9.544C6.03938 9.568 5.99004 9.60133 5.94738 9.644C5.90738 9.68667 5.87404 9.73733 5.84738 9.796C5.82338 9.852 5.81138 9.912 5.81138 9.976C5.81138 10.04 5.82338 10.1 5.84738 10.156C5.87138 10.212 5.90471 10.2613 5.94738 10.304C5.99004 10.344 6.03938 10.3773 6.09538 10.404C6.15404 10.428 6.21538 10.44 6.27938 10.44C6.34338 10.44 6.40338 10.428 6.45938 10.404C6.51538 10.38 6.56338 10.3467 6.60338 10.304C6.64604 10.2613 6.67938 10.212 6.70338 10.156C6.73004 10.1 6.74338 10.0413 6.74338 9.98ZM5.83138 7.68V9.152C6.00204 8.97333 6.21538 8.884 6.47138 8.884C6.62338 8.884 6.76204 8.91333 6.88738 8.972C7.01538 9.028 7.12338 9.10533 7.21137 9.204C7.30204 9.3 7.37271 9.41467 7.42338 9.548C7.47404 9.67867 7.49938 9.81867 7.49938 9.968C7.49938 10.12 7.47271 10.2627 7.41938 10.396C7.36871 10.5293 7.29671 10.6453 7.20338 10.744C7.11004 10.8427 6.99938 10.9213 6.87138 10.98C6.74604 11.036 6.61004 11.064 6.46338 11.064C6.19671 11.064 5.98604 10.9667 5.83138 10.772V11H5.10738V7.68H5.83138ZM9.54806 9.98C9.54806 9.916 9.53606 9.856 9.51206 9.8C9.48806 9.74133 9.45473 9.69067 9.41206 9.648C9.3694 9.60533 9.32006 9.572 9.26406 9.548C9.20806 9.52133 9.14673 9.508 9.08006 9.508C9.01606 9.508 8.95606 9.52 8.90006 9.544C8.84406 9.568 8.79473 9.60133 8.75206 9.644C8.71206 9.68667 8.67873 9.73733 8.65206 9.796C8.62806 9.852 8.61606 9.912 8.61606 9.976C8.61606 10.04 8.62806 10.1 8.65206 10.156C8.67606 10.212 8.7094 10.2613 8.75206 10.304C8.79473 10.344 8.84406 10.3773 8.90006 10.404C8.95873 10.428 9.02006 10.44 9.08406 10.44C9.14806 10.44 9.20806 10.428 9.26406 10.404C9.32006 10.38 9.36806 10.3467 9.40806 10.304C9.45073 10.2613 9.48406 10.212 9.50806 10.156C9.53473 10.1 9.54806 10.0413 9.54806 9.98ZM8.63606 7.68V9.152C8.80673 8.97333 9.02006 8.884 9.27606 8.884C9.42806 8.884 9.56673 8.91333 9.69206 8.972C9.82006 9.028 9.92806 9.10533 10.0161 9.204C10.1067 9.3 10.1774 9.41467 10.2281 9.548C10.2787 9.67867 10.3041 9.81867 10.3041 9.968C10.3041 10.12 10.2774 10.2627 10.2241 10.396C10.1734 10.5293 10.1014 10.6453 10.0081 10.744C9.91473 10.8427 9.80406 10.9213 9.67606 10.98C9.55073 11.036 9.41473 11.064 9.26806 11.064C9.0014 11.064 8.79073 10.9667 8.63606 10.772V11H7.91206V7.68H8.63606ZM11.5247 9.552V11H10.8008V9.552H10.5608V8.948H10.8008V8.332H11.5247V8.948H11.9368V9.552H11.5247Z" fill="white" style="fill:white;fill-opacity:1;"/>
</svg>
